<?xml version="1.0" encoding="UTF-8"?>
<svg id="_레이어_2" data-name="레이어 2" xmlns="http://www.w3.org/2000/svg" viewBox="0 0 48.62 49.96">
  <defs>
    <style>
      .cls-1 {
        fill: #320200;
      }

      .cls-2 {
        fill: #fd983e;
      }

      .cls-3 {
        fill: #b25023;
      }

      .cls-4 {
        fill: #0b0000;
      }

      .cls-5 {
        fill: none;
        stroke: #000;
        stroke-miterlimit: 10;
      }

      .cls-6 {
        fill: #d56211;
      }

      .cls-7 {
        fill: #050100;
      }
    </style>
  </defs>
  <g id="_레이어_1-2" data-name="레이어 1">
    <g>
      <rect class="cls-2" x="3.55" y="3.34" width="41.97" height="43.16"/>
      <rect class="cls-5" x="3.55" y="3.34" width="41.97" height="43.16"/>
      <rect class="cls-3" x="3.55" width="41.97" height="3.34"/>
      <polygon class="cls-7" points="48.62 3.34 45.52 3.34 45.52 46.5 0 46.5 0 49.96 48.62 49.96 48.62 3.34"/>
      <rect class="cls-3" y="3.34" width="3.55" height="43.16"/>
      <circle class="cls-1" cx="7.9" cy="8.52" r="1.92"/>
      <circle class="cls-1" cx="41.8" cy="8.52" r="1.92"/>
      <circle class="cls-1" cx="41.8" cy="41.98" r="1.92"/>
      <circle class="cls-1" cx="7.9" cy="41.98" r="1.92"/>
      <polygon class="cls-4" points="18.65 16.46 15.79 16.46 15.79 24.49 21.77 24.49 21.77 16.46 30.96 16.46 30.96 24.94 28.28 24.94 28.28 28.24 25.07 28.24 25.07 33.86 30.96 33.86 30.96 28.33 36.85 28.33 36.85 15.84 33.99 15.84 33.99 12.62 18.65 12.62 18.65 16.46"/>
      <rect class="cls-4" x="25.16" y="37.52" width="5.44" height="5.8"/>
      <polygon class="cls-6" points="15.32 13.41 12.46 13.41 12.46 21.44 18.44 21.44 18.44 13.41 27.63 13.41 27.63 21.88 24.95 21.88 24.95 25.18 21.74 25.18 21.74 30.8 27.63 30.8 27.63 25.27 33.52 25.27 33.52 12.78 30.66 12.78 30.66 9.57 15.32 9.57 15.32 13.41"/>
      <rect class="cls-6" x="21.83" y="34.46" width="5.44" height="5.8"/>
    </g>
  </g>
</svg>